<svg xmlns="http://www.w3.org/2000/svg" width="1600" height="900" viewBox="0 0 1600 900" role="img" aria-labelledby="visual-title visual-description">
<title id="visual-title">DeepSeek RAG Evaluation: Two Separate Stages</title>
<desc id="visual-description">Retriever and generator evaluation lanes with independent metrics and failure patterns.</desc>
<defs>
<linearGradient id="bgGradient" x1="0" y1="0" x2="1" y2="1">
<stop offset="0%" stop-color="#071524"/>
<stop offset="100%" stop-color="#0a1b2c"/>
</linearGradient>
</defs>
<rect width="1600" height="900" fill="url(#bgGradient)"/>
<circle cx="1460" cy="-30" r="340" fill="#142d49" opacity="0.55"/>
<circle cx="25" cy="930" r="340" fill="#0b303c" opacity="0.55"/>
<rect x="72" y="52" width="790" height="44" fill="#0b2b35" rx="22" stroke="#20707b" stroke-width="2"/>
<text x="96" y="81" fill="#2dd4c6" font-family="Inter, Segoe UI, Arial, sans-serif" font-size="20" font-weight="800" text-anchor="start">CHAT-DEEP.AI  |  DEEPSEEK EVALUATION FRAMEWORK</text>
<text x="72" y="164" fill="#f7f9fc" font-family="Inter, Segoe UI, Arial, sans-serif" font-size="48" font-weight="800" text-anchor="start">DeepSeek RAG Evaluation: Two Separate Stages</text>
<text x="72" y="209" fill="#afc0d5" font-family="Inter, Segoe UI, Arial, sans-serif" font-size="24" font-weight="500" text-anchor="start">Score retrieval and generation independently so one stage cannot conceal the other&#x27;s failure</text>
<rect x="72" y="227" width="1456" height="4" fill="#2dd4c6" rx="2"/>
<rect x="72" y="266" width="208" height="38" fill="#0b2034" rx="19" stroke="#5ea8ff" stroke-width="2"/>
<text x="176" y="290" fill="#5ea8ff" font-family="Inter, Segoe UI, Arial, sans-serif" font-size="16" font-weight="800" text-anchor="middle">RETRIEVER LANE</text>
<rect x="72" y="324" width="196" height="112" fill="#10283f" rx="18" stroke="#5ea8ff" stroke-width="2"/>
<circle cx="96" cy="349" r="7" fill="#5ea8ff"/>
<text x="114" y="355" fill="#5ea8ff" font-family="Inter, Segoe UI, Arial, sans-serif" font-size="16" font-weight="800" text-anchor="start">QUESTION</text>
<text x="170" y="393" fill="#afc0d5" font-family="Inter, Segoe UI, Arial, sans-serif" font-size="15" font-weight="500" text-anchor="middle">task contract</text>
<line x1="268" y1="380" x2="281" y2="380" stroke="#5ea8ff" stroke-width="3" stroke-linecap="round"/>
<polygon points="290,380 277.9,387.0 277.9,373.0" fill="#5ea8ff"/>
<rect x="300" y="324" width="196" height="112" fill="#10283f" rx="18" stroke="#5ea8ff" stroke-width="2"/>
<circle cx="324" cy="349" r="7" fill="#5ea8ff"/>
<text x="342" y="355" fill="#5ea8ff" font-family="Inter, Segoe UI, Arial, sans-serif" font-size="16" font-weight="800" text-anchor="start">CORPUS</text>
<text x="398" y="393" fill="#afc0d5" font-family="Inter, Segoe UI, Arial, sans-serif" font-size="15" font-weight="500" text-anchor="middle">candidate sources</text>
<line x1="496" y1="380" x2="509" y2="380" stroke="#5ea8ff" stroke-width="3" stroke-linecap="round"/>
<polygon points="518,380 505.9,387.0 505.9,373.0" fill="#5ea8ff"/>
<rect x="528" y="324" width="196" height="112" fill="#10283f" rx="18" stroke="#5ea8ff" stroke-width="2"/>
<circle cx="552" cy="349" r="7" fill="#5ea8ff"/>
<text x="570" y="355" fill="#5ea8ff" font-family="Inter, Segoe UI, Arial, sans-serif" font-size="16" font-weight="800" text-anchor="start">RANKED CHUNKS</text>
<text x="626" y="393" fill="#afc0d5" font-family="Inter, Segoe UI, Arial, sans-serif" font-size="15" font-weight="500" text-anchor="middle">retrieved context</text>
<rect x="756" y="324" width="384" height="112" fill="#112e4b" rx="18" stroke="#5ea8ff" stroke-width="2"/>
<text x="780" y="357" fill="#5ea8ff" font-family="Inter, Segoe UI, Arial, sans-serif" font-size="16" font-weight="800" text-anchor="start">RETRIEVAL METRICS</text>
<text x="780" y="388" fill="#afc0d5" font-family="Inter, Segoe UI, Arial, sans-serif" font-size="15" font-weight="500" text-anchor="start">coverage + contextual recall</text>
<text x="780" y="415" fill="#afc0d5" font-family="Inter, Segoe UI, Arial, sans-serif" font-size="15" font-weight="500" text-anchor="start">contextual precision + ranking</text>
<rect x="1168" y="324" width="360" height="112" fill="#351a25" rx="18" stroke="#ff6b81" stroke-width="2"/>
<text x="1192" y="357" fill="#ff6b81" font-family="Inter, Segoe UI, Arial, sans-serif" font-size="16" font-weight="800" text-anchor="start">RETRIEVAL RISKS</text>
<text x="1192" y="388" fill="#afc0d5" font-family="Inter, Segoe UI, Arial, sans-serif" font-size="15" font-weight="500" text-anchor="start">stale source detection</text>
<text x="1192" y="415" fill="#afc0d5" font-family="Inter, Segoe UI, Arial, sans-serif" font-size="15" font-weight="500" text-anchor="start">distractor detection</text>
<line x1="724" y1="380" x2="737" y2="380" stroke="#5ea8ff" stroke-width="3" stroke-linecap="round"/>
<polygon points="746,380 733.9,387.0 733.9,373.0" fill="#5ea8ff"/>
<line x1="1140" y1="380" x2="1149" y2="380" stroke="#ff6b81" stroke-width="3" stroke-linecap="round"/>
<polygon points="1158,380 1145.9,387.0 1145.9,373.0" fill="#ff6b81"/>
<rect x="72" y="472" width="208" height="38" fill="#0b2034" rx="19" stroke="#a78bfa" stroke-width="2"/>
<text x="176" y="496" fill="#a78bfa" font-family="Inter, Segoe UI, Arial, sans-serif" font-size="16" font-weight="800" text-anchor="middle">GENERATOR LANE</text>
<rect x="72" y="530" width="196" height="112" fill="#10283f" rx="18" stroke="#a78bfa" stroke-width="2"/>
<circle cx="96" cy="555" r="7" fill="#a78bfa"/>
<text x="114" y="561" fill="#a78bfa" font-family="Inter, Segoe UI, Arial, sans-serif" font-size="14" font-weight="800" text-anchor="start">SELECTED CONTEXT</text>
<text x="170" y="599" fill="#afc0d5" font-family="Inter, Segoe UI, Arial, sans-serif" font-size="15" font-weight="500" text-anchor="middle">bounded evidence</text>
<line x1="268" y1="586" x2="281" y2="586" stroke="#a78bfa" stroke-width="3" stroke-linecap="round"/>
<polygon points="290,586 277.9,593.0 277.9,579.0" fill="#a78bfa"/>
<rect x="300" y="530" width="196" height="112" fill="#10283f" rx="18" stroke="#a78bfa" stroke-width="2"/>
<circle cx="324" cy="555" r="7" fill="#a78bfa"/>
<text x="342" y="561" fill="#a78bfa" font-family="Inter, Segoe UI, Arial, sans-serif" font-size="14" font-weight="800" text-anchor="start">DEEPSEEK RESPONSE</text>
<text x="398" y="599" fill="#afc0d5" font-family="Inter, Segoe UI, Arial, sans-serif" font-size="15" font-weight="500" text-anchor="middle">answer + citations</text>
<line x1="496" y1="586" x2="509" y2="586" stroke="#a78bfa" stroke-width="3" stroke-linecap="round"/>
<polygon points="518,586 505.9,593.0 505.9,579.0" fill="#a78bfa"/>
<rect x="528" y="530" width="196" height="112" fill="#10283f" rx="18" stroke="#a78bfa" stroke-width="2"/>
<circle cx="552" cy="555" r="7" fill="#a78bfa"/>
<text x="570" y="561" fill="#a78bfa" font-family="Inter, Segoe UI, Arial, sans-serif" font-size="14" font-weight="800" text-anchor="start">CLAIM EXTRACTION</text>
<text x="626" y="599" fill="#afc0d5" font-family="Inter, Segoe UI, Arial, sans-serif" font-size="15" font-weight="500" text-anchor="middle">material claims</text>
<rect x="756" y="530" width="772" height="112" fill="#252545" rx="18" stroke="#a78bfa" stroke-width="2"/>
<text x="780" y="563" fill="#a78bfa" font-family="Inter, Segoe UI, Arial, sans-serif" font-size="16" font-weight="800" text-anchor="start">GENERATION METRICS</text>
<circle cx="780" cy="592" r="6" fill="#2dd4c6"/>
<text x="794" y="597" fill="#afc0d5" font-family="Inter, Segoe UI, Arial, sans-serif" font-size="14" font-weight="500" text-anchor="start">citation support</text>
<circle cx="966" cy="592" r="6" fill="#43df88"/>
<text x="980" y="597" fill="#afc0d5" font-family="Inter, Segoe UI, Arial, sans-serif" font-size="14" font-weight="500" text-anchor="start">faithfulness</text>
<circle cx="1136" cy="592" r="6" fill="#ffbd22"/>
<text x="1150" y="597" fill="#afc0d5" font-family="Inter, Segoe UI, Arial, sans-serif" font-size="14" font-weight="500" text-anchor="start">factuality</text>
<circle cx="1288" cy="592" r="6" fill="#5ea8ff"/>
<text x="1302" y="597" fill="#afc0d5" font-family="Inter, Segoe UI, Arial, sans-serif" font-size="14" font-weight="500" text-anchor="start">relevance</text>
<circle cx="1414" cy="592" r="6" fill="#ff6b81"/>
<text x="1428" y="597" fill="#afc0d5" font-family="Inter, Segoe UI, Arial, sans-serif" font-size="14" font-weight="500" text-anchor="start">abstention</text>
<line x1="724" y1="586" x2="737" y2="586" stroke="#a78bfa" stroke-width="3" stroke-linecap="round"/>
<polygon points="746,586 733.9,593.0 733.9,579.0" fill="#a78bfa"/>
<text x="72" y="693" fill="#f7f9fc" font-family="Inter, Segoe UI, Arial, sans-serif" font-size="17" font-weight="800" text-anchor="start">FAILURE PATTERNS TO KEEP SEPARATE</text>
<rect x="72" y="710" width="344" height="78" fill="#0b2034" rx="16" stroke="#5ea8ff" stroke-width="2"/>
<text x="90" y="738" fill="#5ea8ff" font-family="Inter, Segoe UI, Arial, sans-serif" font-size="14" font-weight="800" text-anchor="start">GOOD ANSWER / BAD RETRIEVAL</text>
<text x="90" y="766" fill="#afc0d5" font-family="Inter, Segoe UI, Arial, sans-serif" font-size="13" font-weight="500" text-anchor="start">prior knowledge masks retrieval failure</text>
<rect x="440" y="710" width="344" height="78" fill="#0b2034" rx="16" stroke="#ffbd22" stroke-width="2"/>
<text x="458" y="738" fill="#ffbd22" font-family="Inter, Segoe UI, Arial, sans-serif" font-size="14" font-weight="800" text-anchor="start">FAITHFUL / STALE CONTEXT</text>
<text x="458" y="766" fill="#afc0d5" font-family="Inter, Segoe UI, Arial, sans-serif" font-size="13" font-weight="500" text-anchor="start">answer mirrors an outdated source</text>
<rect x="808" y="710" width="344" height="78" fill="#0b2034" rx="16" stroke="#ff6b81" stroke-width="2"/>
<text x="826" y="738" fill="#ff6b81" font-family="Inter, Segoe UI, Arial, sans-serif" font-size="14" font-weight="800" text-anchor="start">GOOD RETRIEVAL / UNSUPPORTED</text>
<text x="826" y="766" fill="#afc0d5" font-family="Inter, Segoe UI, Arial, sans-serif" font-size="13" font-weight="500" text-anchor="start">answer adds claims beyond context</text>
<rect x="1176" y="710" width="344" height="78" fill="#0b2034" rx="16" stroke="#43df88" stroke-width="2"/>
<text x="1194" y="738" fill="#43df88" font-family="Inter, Segoe UI, Arial, sans-serif" font-size="14" font-weight="800" text-anchor="start">INSUFFICIENT / ABSTAINS</text>
<text x="1194" y="766" fill="#afc0d5" font-family="Inter, Segoe UI, Arial, sans-serif" font-size="13" font-weight="500" text-anchor="start">correct refusal is a successful outcome</text>
<line x1="72" y1="828" x2="1528" y2="828" stroke="#284d68" stroke-width="2" stroke-linecap="round"/>
<text x="72" y="874" fill="#afc0d5" font-family="Inter, Segoe UI, Arial, sans-serif" font-size="18" font-weight="500" text-anchor="start">Conceptual evaluation diagram | no live-result claims</text>
<text x="1528" y="875" fill="#2dd4c6" font-family="Inter, Segoe UI, Arial, sans-serif" font-size="20" font-weight="800" text-anchor="end">chat-deep.ai</text>
</svg>
